<svg xmlns="http://www.w3.org/2000/svg" xmlns:xlink="http://www.w3.org/1999/xlink" width="500" zoomAndPan="magnify" viewBox="0 0 375 374.999991" height="500" preserveAspectRatio="xMidYMid meet" version="1.0"><defs><g/><clipPath id="1c7c3d9d2c"><path d="M 49.5 142.886719 L 325.488281 142.886719 L 325.488281 232.113281 L 49.5 232.113281 Z M 49.5 142.886719 " clip-rule="nonzero"/></clipPath><clipPath id="cb9e175e74"><path d="M 121.566406 221.199219 L 253.433594 221.199219 L 253.433594 242.914062 L 121.566406 242.914062 Z M 121.566406 221.199219 " clip-rule="nonzero"/></clipPath><clipPath id="71b94e95dc"><path d="M 224 162 L 247 162 L 247 207 L 224 207 Z M 224 162 " clip-rule="nonzero"/></clipPath><clipPath id="9c828e0b20"><path d="M 215.265625 167.925781 L 245.011719 157.558594 L 258.339844 195.804688 L 228.59375 206.171875 Z M 215.265625 167.925781 " clip-rule="nonzero"/></clipPath><clipPath id="1ad0a7b260"><path d="M 215.265625 167.925781 L 245.011719 157.558594 L 258.339844 195.804688 L 228.59375 206.171875 Z M 215.265625 167.925781 " clip-rule="nonzero"/></clipPath></defs><rect x="-37.5" width="450" fill="#ffffff" y="-37.499999" height="449.999989" fill-opacity="1"/><rect x="-37.5" width="450" fill="#ffffff" y="-37.499999" height="449.999989" fill-opacity="1"/><g clip-path="url(#1c7c3d9d2c)"><path stroke-linecap="butt" transform="matrix(0.75, 0, 0, 0.75, 49.500253, 142.884835)" fill="none" stroke-linejoin="miter" d="M -0.000337666 0.00251111 L 367.984085 0.00251111 L 367.984085 118.971277 L -0.000337666 118.971277 Z M -0.000337666 0.00251111 " stroke="#000000" stroke-width="8" stroke-opacity="1" stroke-miterlimit="4"/></g><g clip-path="url(#cb9e175e74)"><path fill="#ffffff" d="M 121.566406 221.199219 L 253.402344 221.199219 L 253.402344 242.914062 L 121.566406 242.914062 Z M 121.566406 221.199219 " fill-opacity="1" fill-rule="nonzero"/></g><path stroke-linecap="butt" transform="matrix(0.75, 0, 0, 0.75, 246.330516, 153.404522)" fill="none" stroke-linejoin="miter" d="M 54.616607 62.596058 C 54.616607 63.033558 54.632232 63.721058 54.663482 64.663767 C 54.694732 65.585642 54.725982 66.564808 54.752023 67.59085 C 54.798898 68.606475 54.835357 69.486684 54.866607 70.226267 C 54.897857 70.971059 54.913482 71.34085 54.913482 71.34085 C 54.913482 71.77835 54.725982 72.002309 54.345773 72.002309 L 3.069728 72.002309 C 2.762437 72.002309 2.611395 71.77835 2.611395 71.34085 L 2.611395 69.866892 C 2.611395 69.804392 2.611395 69.773142 2.611395 69.773142 C 2.611395 69.65335 2.611395 69.523142 2.611395 69.387725 L 2.611395 40.351265 C 2.611395 37.945015 2.611395 35.528348 2.611395 33.101265 C 2.611395 30.679389 2.673895 28.257514 2.793687 25.835639 C 2.793687 23.668972 2.762437 21.533556 2.705145 19.42418 C 2.705145 18.48668 2.68952 17.585639 2.65827 16.721055 C 2.62702 15.86168 2.642645 14.960638 2.705145 14.01793 C 2.762437 13.653347 2.944728 13.476263 3.246812 13.476263 L 29.397855 13.476263 C 29.715564 13.476263 29.877022 13.684597 29.877022 14.11168 C 29.877022 16.096055 29.939522 18.064805 30.059314 20.01793 C 30.179105 21.971056 30.267647 23.939806 30.330147 25.924181 C 30.392647 27.226264 30.423897 28.512723 30.423897 29.788764 C 30.423897 31.059598 30.423897 32.314806 30.423897 33.559598 C 30.481189 34.434598 30.481189 35.700223 30.423897 37.351265 C 30.361397 38.986682 30.298897 40.58564 30.241605 42.14814 C 30.179105 43.689807 30.179105 44.705432 30.241605 45.189807 C 30.241605 46.007515 30.241605 46.851266 30.241605 47.710641 C 30.241605 48.575224 30.460355 49.288766 30.897855 49.846057 C 31.142647 50.226266 31.85098 50.476266 33.033272 50.596057 C 34.215564 50.721057 35.460356 50.778349 36.762439 50.778349 C 38.064522 50.778349 39.022856 50.778349 39.647856 50.778349 C 40.267648 50.778349 41.231189 50.762724 42.533273 50.736682 C 43.835356 50.705432 45.241606 50.658557 46.757231 50.596057 C 48.288481 50.538766 49.746815 50.476266 51.142648 50.413766 C 52.533273 50.356474 53.632232 50.325224 54.434315 50.325224 C 54.752023 50.387724 54.882232 50.570016 54.82494 50.872099 C 54.82494 50.991891 54.82494 51.460641 54.82494 52.278349 C 54.82494 53.080433 54.798898 53.924183 54.752023 54.799183 C 54.725982 55.663766 54.710357 56.309599 54.710357 56.731474 C 54.647857 57.731475 54.616607 58.731475 54.616607 59.731475 C 54.616607 60.71585 54.616607 61.668975 54.616607 62.596058 Z M 54.616607 62.596058 " stroke="#ffffff" stroke-width="6.980002" stroke-opacity="1" stroke-miterlimit="4"/><g fill="#272727" fill-opacity="1"><g transform="translate(246.330516, 207.404518)"><g><path d="M 40.96875 -7.046875 C 40.96875 -6.722656 40.976562 -6.210938 41 -5.515625 C 41.03125 -4.816406 41.054688 -4.082031 41.078125 -3.3125 C 41.097656 -2.539062 41.117188 -1.875 41.140625 -1.3125 C 41.171875 -0.757812 41.1875 -0.484375 41.1875 -0.484375 C 41.1875 -0.160156 41.046875 0 40.765625 0 L 2.296875 0 C 2.066406 0 1.953125 -0.160156 1.953125 -0.484375 L 1.953125 -1.609375 C 1.953125 -1.648438 1.953125 -1.671875 1.953125 -1.671875 C 1.953125 -1.765625 1.953125 -1.859375 1.953125 -1.953125 L 1.953125 -23.734375 C 1.953125 -25.546875 1.953125 -27.359375 1.953125 -29.171875 C 1.953125 -30.984375 2 -32.800781 2.09375 -34.625 C 2.09375 -36.25 2.070312 -37.851562 2.03125 -39.4375 C 2.03125 -40.132812 2.015625 -40.804688 1.984375 -41.453125 C 1.960938 -42.109375 1.976562 -42.785156 2.03125 -43.484375 C 2.070312 -43.765625 2.207031 -43.90625 2.4375 -43.90625 L 22.0625 -43.90625 C 22.289062 -43.90625 22.40625 -43.738281 22.40625 -43.40625 C 22.40625 -41.925781 22.453125 -40.453125 22.546875 -38.984375 C 22.640625 -37.515625 22.707031 -36.035156 22.75 -34.546875 C 22.800781 -33.566406 22.828125 -32.597656 22.828125 -31.640625 C 22.828125 -30.691406 22.828125 -29.753906 22.828125 -28.828125 C 22.867188 -28.171875 22.863281 -27.226562 22.8125 -26 C 22.769531 -24.769531 22.722656 -23.570312 22.671875 -22.40625 C 22.628906 -21.238281 22.632812 -20.46875 22.6875 -20.09375 C 22.6875 -19.488281 22.6875 -18.859375 22.6875 -18.203125 C 22.6875 -17.554688 22.847656 -17.023438 23.171875 -16.609375 C 23.359375 -16.328125 23.894531 -16.140625 24.78125 -16.046875 C 25.664062 -15.953125 26.59375 -15.90625 27.5625 -15.90625 C 28.539062 -15.90625 29.265625 -15.90625 29.734375 -15.90625 C 30.203125 -15.90625 30.921875 -15.914062 31.890625 -15.9375 C 32.867188 -15.96875 33.925781 -16.003906 35.0625 -16.046875 C 36.207031 -16.097656 37.300781 -16.144531 38.34375 -16.1875 C 39.394531 -16.238281 40.222656 -16.265625 40.828125 -16.265625 C 41.066406 -16.210938 41.160156 -16.070312 41.109375 -15.84375 C 41.109375 -15.75 41.109375 -15.398438 41.109375 -14.796875 C 41.109375 -14.191406 41.097656 -13.5625 41.078125 -12.90625 C 41.054688 -12.257812 41.046875 -11.773438 41.046875 -11.453125 C 40.992188 -10.703125 40.96875 -9.953125 40.96875 -9.203125 C 40.96875 -8.460938 40.96875 -7.742188 40.96875 -7.046875 Z M 40.96875 -7.046875 "/></g></g></g><path stroke-linecap="butt" transform="matrix(0.75, 0, 0, 0.75, 212.798019, 169.229168)" fill="none" stroke-linejoin="miter" d="M 2.79535 -8.524308 L 28.560977 -8.524308 C 29.253686 -8.524308 29.602644 -8.154516 29.602644 -7.414933 C 29.404727 -5.612849 29.295352 -3.128474 29.264102 0.0381926 C 29.232852 3.189234 29.217227 6.61111 29.217227 10.309027 C 29.217227 14.006943 29.248477 17.61111 29.310977 21.121527 C 29.368269 24.621528 29.415144 27.704861 29.446394 30.371528 C 29.477644 33.038195 29.529727 34.89757 29.602644 35.96007 C 29.602644 38.126737 29.665144 40.277779 29.784936 42.413195 C 29.904727 44.548612 30.055769 46.704862 30.238061 48.887154 C 30.300561 49.626737 29.962019 50.001738 29.217227 50.001738 L 2.883892 50.001738 C 2.644309 50.001738 2.550559 49.850696 2.613059 49.543404 C 2.73285 48.725696 2.8266 47.236112 2.883892 45.069446 C 2.946392 42.902779 2.977642 40.470487 2.977642 37.777778 C 2.977642 35.064237 2.962017 32.52257 2.930767 30.142361 C 2.899517 27.751736 2.852642 25.934028 2.79535 24.689236 C 2.79535 23.204861 2.779725 21.251736 2.748475 18.82986 C 2.717225 16.402777 2.685975 13.79861 2.659934 11.012152 C 2.628684 8.210068 2.597434 5.491318 2.566184 2.855901 C 2.534934 0.220484 2.498475 -2.086808 2.4516 -4.071183 C 2.425559 -6.055558 2.409934 -7.420141 2.409934 -8.164933 C 2.48285 -8.222225 2.613059 -8.342016 2.79535 -8.524308 Z M 68.665146 40.595487 C 68.665146 41.032987 68.680771 41.720487 68.712021 42.663195 C 68.738063 43.58507 68.769313 44.564237 68.800563 45.590279 C 68.847438 46.605904 68.883896 47.486112 68.915146 48.225696 C 68.946396 48.970487 68.962021 49.340279 68.962021 49.340279 C 68.962021 49.777779 68.769313 50.001738 68.394313 50.001738 L 17.11306 50.001738 C 16.810976 50.001738 16.659935 49.777779 16.659935 49.340279 L 16.659935 47.866321 C 16.659935 47.803821 16.659935 47.772571 16.659935 47.772571 C 16.659935 47.652779 16.659935 47.522571 16.659935 47.387154 L 16.659935 18.350694 C 16.659935 15.944444 16.659935 13.527777 16.659935 11.105902 C 16.659935 8.678818 16.717226 6.256943 16.842226 3.835068 C 16.842226 1.668401 16.810976 -0.467016 16.748476 -2.571183 C 16.748476 -3.513891 16.732851 -4.414933 16.70681 -5.279516 C 16.67556 -6.138891 16.691185 -7.039933 16.748476 -7.982641 C 16.810976 -8.342016 16.993268 -8.524308 17.295351 -8.524308 L 43.446395 -8.524308 C 43.764103 -8.524308 43.920353 -8.315975 43.920353 -7.888891 C 43.920353 -5.904516 43.982853 -3.935766 44.102645 -1.982641 C 44.227645 -0.0295158 44.316187 1.939234 44.378687 3.923609 C 44.435978 5.225693 44.467228 6.512151 44.467228 7.788193 C 44.467228 9.059026 44.467228 10.314235 44.467228 11.559027 C 44.529728 12.439235 44.529728 13.699652 44.467228 15.350694 C 44.404728 16.98611 44.347437 18.585069 44.284937 20.147569 C 44.227645 21.689236 44.227645 22.704861 44.284937 23.189236 C 44.284937 24.006944 44.284937 24.850694 44.284937 25.710069 C 44.284937 26.574653 44.503687 27.288194 44.946395 27.850694 C 45.185978 28.225694 45.89952 28.475694 47.081812 28.595486 C 48.264103 28.720486 49.503687 28.777778 50.80577 28.777778 C 52.107854 28.777778 53.071395 28.777778 53.691187 28.777778 C 54.310979 28.777778 55.274521 28.762153 56.576604 28.736111 C 57.878687 28.704861 59.290146 28.657986 60.805771 28.595486 C 62.331813 28.538194 63.795354 28.475694 65.18598 28.418403 C 66.581813 28.355903 67.680771 28.324653 68.482855 28.324653 C 68.800563 28.387153 68.930771 28.569444 68.868271 28.871528 C 68.868271 28.991319 68.868271 29.460069 68.868271 30.277778 C 68.868271 31.079861 68.847438 31.923611 68.800563 32.798611 C 68.769313 33.663195 68.753688 34.309028 68.753688 34.730903 C 68.696396 35.730903 68.665146 36.730903 68.665146 37.730903 C 68.665146 38.715278 68.665146 39.668403 68.665146 40.595487 Z M 68.665146 40.595487 " stroke="#ffffff" stroke-width="6.980002" stroke-opacity="1" stroke-miterlimit="4"/><g fill="#272727" fill-opacity="1"><g transform="translate(212.798019, 206.729166)"><g><path d="M 2.09375 -43.90625 L 21.421875 -43.90625 C 21.941406 -43.90625 22.203125 -43.625 22.203125 -43.0625 C 22.054688 -41.71875 21.972656 -39.859375 21.953125 -37.484375 C 21.929688 -35.109375 21.921875 -32.535156 21.921875 -29.765625 C 21.921875 -26.992188 21.941406 -24.296875 21.984375 -21.671875 C 22.035156 -19.046875 22.070312 -16.726562 22.09375 -14.71875 C 22.113281 -12.71875 22.148438 -11.328125 22.203125 -10.546875 C 22.203125 -8.910156 22.242188 -7.289062 22.328125 -5.6875 C 22.421875 -4.082031 22.539062 -2.46875 22.6875 -0.84375 C 22.726562 -0.28125 22.472656 0 21.921875 0 L 2.15625 0 C 1.976562 0 1.910156 -0.113281 1.953125 -0.34375 C 2.046875 -0.945312 2.113281 -2.0625 2.15625 -3.6875 C 2.207031 -5.320312 2.234375 -7.148438 2.234375 -9.171875 C 2.234375 -11.203125 2.21875 -13.113281 2.1875 -14.90625 C 2.164062 -16.695312 2.132812 -18.054688 2.09375 -18.984375 C 2.09375 -20.097656 2.082031 -21.5625 2.0625 -23.375 C 2.039062 -25.195312 2.015625 -27.15625 1.984375 -29.25 C 1.960938 -31.34375 1.941406 -33.375 1.921875 -35.34375 C 1.898438 -37.320312 1.875 -39.054688 1.84375 -40.546875 C 1.820312 -42.035156 1.8125 -43.0625 1.8125 -43.625 C 1.863281 -43.664062 1.957031 -43.757812 2.09375 -43.90625 Z M 2.09375 -43.90625 "/></g></g></g><g fill="#272727" fill-opacity="1"><g transform="translate(223.332615, 206.729166)"><g><path d="M 40.96875 -7.046875 C 40.96875 -6.722656 40.976562 -6.210938 41 -5.515625 C 41.03125 -4.816406 41.054688 -4.082031 41.078125 -3.3125 C 41.097656 -2.539062 41.117188 -1.875 41.140625 -1.3125 C 41.171875 -0.757812 41.1875 -0.484375 41.1875 -0.484375 C 41.1875 -0.160156 41.046875 0 40.765625 0 L 2.296875 0 C 2.066406 0 1.953125 -0.160156 1.953125 -0.484375 L 1.953125 -1.609375 C 1.953125 -1.648438 1.953125 -1.671875 1.953125 -1.671875 C 1.953125 -1.765625 1.953125 -1.859375 1.953125 -1.953125 L 1.953125 -23.734375 C 1.953125 -25.546875 1.953125 -27.359375 1.953125 -29.171875 C 1.953125 -30.984375 2 -32.800781 2.09375 -34.625 C 2.09375 -36.25 2.070312 -37.851562 2.03125 -39.4375 C 2.03125 -40.132812 2.015625 -40.804688 1.984375 -41.453125 C 1.960938 -42.109375 1.976562 -42.785156 2.03125 -43.484375 C 2.070312 -43.765625 2.207031 -43.90625 2.4375 -43.90625 L 22.0625 -43.90625 C 22.289062 -43.90625 22.40625 -43.738281 22.40625 -43.40625 C 22.40625 -41.925781 22.453125 -40.453125 22.546875 -38.984375 C 22.640625 -37.515625 22.707031 -36.035156 22.75 -34.546875 C 22.800781 -33.566406 22.828125 -32.597656 22.828125 -31.640625 C 22.828125 -30.691406 22.828125 -29.753906 22.828125 -28.828125 C 22.867188 -28.171875 22.863281 -27.226562 22.8125 -26 C 22.769531 -24.769531 22.722656 -23.570312 22.671875 -22.40625 C 22.628906 -21.238281 22.632812 -20.46875 22.6875 -20.09375 C 22.6875 -19.488281 22.6875 -18.859375 22.6875 -18.203125 C 22.6875 -17.554688 22.847656 -17.023438 23.171875 -16.609375 C 23.359375 -16.328125 23.894531 -16.140625 24.78125 -16.046875 C 25.664062 -15.953125 26.59375 -15.90625 27.5625 -15.90625 C 28.539062 -15.90625 29.265625 -15.90625 29.734375 -15.90625 C 30.203125 -15.90625 30.921875 -15.914062 31.890625 -15.9375 C 32.867188 -15.96875 33.925781 -16.003906 35.0625 -16.046875 C 36.207031 -16.097656 37.300781 -16.144531 38.34375 -16.1875 C 39.394531 -16.238281 40.222656 -16.265625 40.828125 -16.265625 C 41.066406 -16.210938 41.160156 -16.070312 41.109375 -15.84375 C 41.109375 -15.75 41.109375 -15.398438 41.109375 -14.796875 C 41.109375 -14.191406 41.097656 -13.5625 41.078125 -12.90625 C 41.054688 -12.257812 41.046875 -11.773438 41.046875 -11.453125 C 40.992188 -10.703125 40.96875 -9.953125 40.96875 -9.203125 C 40.96875 -8.460938 40.96875 -7.742188 40.96875 -7.046875 Z M 40.96875 -7.046875 "/></g></g></g><path stroke-linecap="butt" transform="matrix(0.75, 0, 0, 0.75, 179.733465, 153.9079)" fill="none" stroke-linejoin="miter" d="M 54.256425 56.549887 C 54.256425 57.35197 54.256425 58.237387 54.256425 59.211345 C 54.256425 60.16447 54.256425 60.982179 54.256425 61.66447 C 54.256425 62.16447 54.27205 62.91447 54.298091 63.909262 C 54.329341 64.898846 54.376216 65.966554 54.438716 67.117596 C 54.496008 68.268637 54.542883 69.242596 54.574133 70.044679 C 54.605383 70.846763 54.6158 71.247804 54.6158 71.247804 C 54.6158 71.747804 54.376216 71.997804 53.891841 71.997804 L 3.54288 71.997804 C 2.66788 71.997804 2.256421 71.570721 2.318921 70.706138 C 2.516838 66.039471 2.626213 61.367595 2.657463 56.685303 C 2.688713 52.00822 2.735588 47.310303 2.79288 42.601969 C 2.85538 38.013427 3.022046 33.393635 3.29288 28.742593 C 3.584546 24.075926 3.38663 19.450926 2.704338 14.862384 C 2.641838 14.482176 2.735588 14.154051 2.975171 13.883217 C 3.219963 13.612384 3.527255 13.471759 3.907463 13.471759 L 53.506425 13.471759 C 53.881425 13.471759 54.131425 13.654051 54.256425 14.018634 C 54.256425 14.081134 54.2408 14.362384 54.20955 14.862384 C 54.1783 15.357176 54.131425 15.857176 54.074133 16.357176 C 54.074133 16.664467 54.042883 17.372801 53.980383 18.492592 C 53.923091 19.617593 53.871008 20.784259 53.824133 21.992593 C 53.792883 23.190509 53.777258 24.09676 53.777258 24.72176 C 53.777258 25.341551 53.808508 26.107176 53.871008 27.013426 C 53.943925 27.90926 54.027258 28.711343 54.1158 29.424885 C 54.20955 30.133218 54.256425 30.492593 54.256425 30.492593 C 54.256425 30.992593 53.975175 31.242593 53.412675 31.242593 C 53.412675 31.242593 52.808508 31.226968 51.594966 31.195718 C 50.386633 31.164468 48.844966 31.148843 46.985591 31.148843 C 45.136632 31.148843 43.167882 31.148843 41.07934 31.148843 C 39.001215 31.148843 37.07934 31.180093 35.308507 31.242593 C 33.54809 31.299885 32.17309 31.393635 31.17309 31.513427 C 30.246006 31.633218 29.303298 31.914468 28.32934 32.351968 C 27.376214 32.794677 26.839756 33.575927 26.719964 34.695719 C 26.641839 35.37801 26.855381 35.950927 27.355381 36.419677 C 27.855381 36.872802 28.386631 37.22176 28.943923 37.466552 C 29.246006 37.529052 30.214756 37.59676 31.855381 37.669677 C 33.506423 37.732177 35.480382 37.763427 37.782465 37.763427 C 40.084549 37.763427 42.397049 37.747802 44.714757 37.716552 C 47.042882 37.685302 49.011633 37.669677 50.621008 37.669677 C 52.240799 37.669677 53.173091 37.669677 53.412675 37.669677 C 53.975175 37.669677 54.256425 37.914469 54.256425 38.398844 L 54.256425 46.122803 C 54.256425 46.805094 54.256425 47.393636 54.256425 47.893636 C 54.256425 48.393636 54.256425 48.924886 54.256425 49.482178 C 54.256425 49.982178 53.975175 50.232178 53.412675 50.232178 C 52.355383 50.232178 50.876216 50.221761 48.985591 50.190511 C 47.105382 50.143636 45.152257 50.091553 43.121007 50.029053 C 41.105382 49.971761 39.287674 49.924886 37.667882 49.893636 C 36.063715 49.862386 34.990798 49.846761 34.443923 49.846761 C 33.824132 49.909261 33.058507 49.940511 32.147048 49.940511 C 31.256423 49.940511 30.397048 50.065511 29.57934 50.325928 C 28.777256 50.565511 28.193923 51.060303 27.829339 51.799886 C 27.209548 52.982178 27.303298 53.961345 28.105381 54.732178 C 28.907465 55.503012 29.808506 56.018637 30.808506 56.279053 C 31.428298 56.398845 32.699131 56.461345 34.626215 56.461345 C 36.54809 56.461345 38.730382 56.41447 41.167882 56.325928 C 43.621007 56.232178 45.975174 56.143637 48.235591 56.049887 C 50.506424 55.94572 52.230383 55.862387 53.412675 55.799887 C 53.975175 55.799887 54.256425 56.049887 54.256425 56.549887 Z M 54.256425 56.549887 " stroke="#ffffff" stroke-width="6.980002" stroke-opacity="1" stroke-miterlimit="4"/><g fill="#272727" fill-opacity="1"><g transform="translate(179.733465, 207.907897)"><g><path d="M 40.6875 -11.59375 C 40.6875 -10.976562 40.6875 -10.3125 40.6875 -9.59375 C 40.6875 -8.875 40.6875 -8.257812 40.6875 -7.75 C 40.6875 -7.375 40.695312 -6.8125 40.71875 -6.0625 C 40.75 -5.320312 40.785156 -4.519531 40.828125 -3.65625 C 40.878906 -2.800781 40.914062 -2.070312 40.9375 -1.46875 C 40.957031 -0.863281 40.96875 -0.5625 40.96875 -0.5625 C 40.96875 -0.1875 40.78125 0 40.40625 0 L 2.65625 0 C 2 0 1.695312 -0.328125 1.75 -0.984375 C 1.882812 -4.472656 1.960938 -7.972656 1.984375 -11.484375 C 2.015625 -14.992188 2.050781 -18.519531 2.09375 -22.0625 C 2.132812 -25.5 2.257812 -28.960938 2.46875 -32.453125 C 2.6875 -35.941406 2.539062 -39.410156 2.03125 -42.859375 C 1.976562 -43.140625 2.046875 -43.382812 2.234375 -43.59375 C 2.421875 -43.800781 2.65625 -43.90625 2.9375 -43.90625 L 40.140625 -43.90625 C 40.410156 -43.90625 40.59375 -43.765625 40.6875 -43.484375 C 40.6875 -43.429688 40.675781 -43.21875 40.65625 -42.84375 C 40.632812 -42.476562 40.597656 -42.109375 40.546875 -41.734375 C 40.546875 -41.503906 40.519531 -40.96875 40.46875 -40.125 C 40.425781 -39.289062 40.394531 -38.421875 40.375 -37.515625 C 40.351562 -36.609375 40.34375 -35.921875 40.34375 -35.453125 C 40.34375 -34.992188 40.363281 -34.425781 40.40625 -33.75 C 40.457031 -33.070312 40.515625 -32.460938 40.578125 -31.921875 C 40.648438 -31.390625 40.6875 -31.125 40.6875 -31.125 C 40.6875 -30.757812 40.476562 -30.578125 40.0625 -30.578125 C 40.0625 -30.578125 39.609375 -30.585938 38.703125 -30.609375 C 37.796875 -30.628906 36.644531 -30.640625 35.25 -30.640625 C 33.851562 -30.640625 32.375 -30.640625 30.8125 -30.640625 C 29.257812 -30.640625 27.816406 -30.613281 26.484375 -30.5625 C 25.160156 -30.519531 24.125 -30.453125 23.375 -30.359375 C 22.675781 -30.265625 21.96875 -30.054688 21.25 -29.734375 C 20.53125 -29.410156 20.125 -28.828125 20.03125 -27.984375 C 19.988281 -27.472656 20.148438 -27.039062 20.515625 -26.6875 C 20.890625 -26.34375 21.285156 -26.078125 21.703125 -25.890625 C 21.941406 -25.847656 22.675781 -25.800781 23.90625 -25.75 C 25.132812 -25.707031 26.609375 -25.6875 28.328125 -25.6875 C 30.054688 -25.6875 31.789062 -25.695312 33.53125 -25.71875 C 35.28125 -25.738281 36.757812 -25.75 37.96875 -25.75 C 39.175781 -25.75 39.875 -25.75 40.0625 -25.75 C 40.476562 -25.75 40.6875 -25.566406 40.6875 -25.203125 L 40.6875 -19.40625 C 40.6875 -18.894531 40.6875 -18.453125 40.6875 -18.078125 C 40.6875 -17.703125 40.6875 -17.304688 40.6875 -16.890625 C 40.6875 -16.515625 40.476562 -16.328125 40.0625 -16.328125 C 39.269531 -16.328125 38.164062 -16.335938 36.75 -16.359375 C 35.332031 -16.390625 33.863281 -16.425781 32.34375 -16.46875 C 30.832031 -16.519531 29.472656 -16.554688 28.265625 -16.578125 C 27.054688 -16.597656 26.242188 -16.609375 25.828125 -16.609375 C 25.359375 -16.566406 24.785156 -16.546875 24.109375 -16.546875 C 23.441406 -16.546875 22.800781 -16.453125 22.1875 -16.265625 C 21.582031 -16.078125 21.144531 -15.703125 20.875 -15.140625 C 20.40625 -14.253906 20.472656 -13.519531 21.078125 -12.9375 C 21.679688 -12.363281 22.359375 -11.984375 23.109375 -11.796875 C 23.566406 -11.703125 24.515625 -11.65625 25.953125 -11.65625 C 27.398438 -11.65625 29.039062 -11.6875 30.875 -11.75 C 32.71875 -11.820312 34.488281 -11.894531 36.1875 -11.96875 C 37.882812 -12.039062 39.175781 -12.097656 40.0625 -12.140625 C 40.476562 -12.140625 40.6875 -11.957031 40.6875 -11.59375 Z M 40.6875 -11.59375 "/></g></g></g><g clip-path="url(#71b94e95dc)"><g clip-path="url(#9c828e0b20)"><g clip-path="url(#1ad0a7b260)"><path fill="#ffffff" d="M 231.460938 162.28125 L 224.878906 184.859375 L 232.074219 184.765625 L 228.625 206.25 L 244.121094 178.152344 L 237.328125 178.171875 L 246.546875 162.402344 Z M 231.460938 162.28125 " fill-opacity="1" fill-rule="nonzero"/></g></g></g><path stroke-linecap="butt" transform="matrix(0.75, 0, 0, 0.75, 143.120064, 153.9079)" fill="none" stroke-linejoin="miter" d="M 54.438877 47.346761 C 54.438877 48.091553 54.423252 49.221761 54.392002 50.732178 C 54.360752 52.247803 54.329502 53.924886 54.298252 55.753012 C 54.27221 57.586345 54.27221 59.372804 54.298252 61.117595 C 54.329502 62.841554 54.407627 64.299887 54.527418 65.476971 L 54.527418 71.070721 C 54.527418 71.690513 54.214918 71.997804 53.595127 71.997804 L 31.8295 71.997804 C 27.92325 71.997804 24.725333 71.773846 22.240958 71.320721 C 19.756583 70.846763 17.787833 70.273846 16.334708 69.591554 C 14.881582 68.893637 13.714916 68.305096 12.834707 67.820721 C 11.532624 67.003012 10.26179 66.070721 9.022207 65.023846 C 7.777415 63.966554 6.787832 62.841554 6.04304 61.66447 C 4.438873 59.055095 3.402415 56.716553 2.928457 54.643637 C 2.459707 52.565511 2.225332 50.50822 2.225332 48.461344 L 2.225332 37.28426 C 2.225332 37.28426 2.225332 37.456135 2.225332 37.805094 C 2.225332 38.138427 2.225332 38.466552 2.225332 38.78426 C 2.225332 39.086344 2.225332 39.148844 2.225332 38.966552 C 2.225332 38.78426 2.225332 38.19051 2.225332 37.195719 C 2.225332 35.148844 2.376373 33.164468 2.678457 31.242593 C 3.001373 29.31551 3.438873 27.544676 3.996165 25.924885 C 4.496165 24.37801 5.272207 22.987384 6.313874 21.742593 C 7.376374 20.503009 8.496165 19.289468 9.678457 18.107176 C 10.980541 16.940509 12.652416 16.018634 14.699291 15.336342 C 16.746166 14.638426 18.964916 14.154051 21.355541 13.883217 C 23.751375 13.612384 26.089917 13.471759 28.376375 13.471759 L 53.048252 13.471759 C 53.293043 13.471759 53.595127 13.648842 53.95971 13.997801 C 54.339918 14.331134 54.527418 14.617592 54.527418 14.862384 L 54.527418 19.607176 C 54.464918 19.851968 54.423252 20.101968 54.392002 20.357176 C 54.360752 20.601968 54.345127 20.841551 54.345127 21.086343 C 54.282627 21.643634 54.27221 22.779051 54.298252 24.492593 C 54.329502 26.206135 54.360752 28.039468 54.392002 29.992593 C 54.423252 31.945718 54.449293 33.633218 54.480543 35.060302 C 54.511793 36.482177 54.527418 37.195719 54.527418 37.195719 C 54.527418 37.81551 54.246168 38.122802 53.688877 38.122802 C 53.142002 38.06551 52.105543 38.049885 50.574293 38.081135 C 49.058668 38.107177 47.293043 38.138427 45.282626 38.169677 C 43.267001 38.200927 41.282626 38.247802 39.329501 38.305094 C 37.376376 38.367594 35.662834 38.414469 34.194084 38.44051 C 32.740959 38.47176 31.86075 38.487385 31.558667 38.487385 C 29.694083 38.487385 28.355542 38.914469 27.537833 39.758219 C 26.73575 40.591552 26.334708 41.383219 26.334708 42.122802 C 26.334708 43.685302 26.9545 44.836344 28.194083 45.575928 C 29.256583 46.195719 30.11075 46.555094 30.761792 46.643636 C 31.412834 46.737386 32.3295 46.841553 33.511792 46.961344 C 34.251375 47.023844 35.412834 47.055094 36.985751 47.055094 C 38.579501 47.055094 40.298251 47.039469 42.147209 47.008219 C 44.006584 46.976969 45.793043 46.945719 47.506585 46.919678 C 49.220126 46.888428 50.642001 46.857178 51.777418 46.825928 C 52.92846 46.794678 53.537835 46.779053 53.595127 46.779053 C 54.032627 46.779053 54.313877 46.971761 54.438877 47.346761 Z M 54.438877 47.346761 " stroke="#ffffff" stroke-width="6.980002" stroke-opacity="1" stroke-miterlimit="4"/><g fill="#272727" fill-opacity="1"><g transform="translate(143.120064, 207.907897)"><g><path d="M 40.828125 -18.5 C 40.828125 -17.9375 40.816406 -17.082031 40.796875 -15.9375 C 40.773438 -14.800781 40.75 -13.546875 40.71875 -12.171875 C 40.695312 -10.804688 40.695312 -9.472656 40.71875 -8.171875 C 40.75 -6.867188 40.8125 -5.773438 40.90625 -4.890625 L 40.90625 -0.703125 C 40.90625 -0.234375 40.671875 0 40.203125 0 L 23.875 0 C 20.9375 0 18.535156 -0.171875 16.671875 -0.515625 C 14.816406 -0.867188 13.34375 -1.300781 12.25 -1.8125 C 11.15625 -2.320312 10.28125 -2.765625 9.625 -3.140625 C 8.65625 -3.742188 7.703125 -4.441406 6.765625 -5.234375 C 5.835938 -6.023438 5.09375 -6.863281 4.53125 -7.75 C 3.320312 -9.695312 2.539062 -11.453125 2.1875 -13.015625 C 1.84375 -14.578125 1.671875 -16.125 1.671875 -17.65625 L 1.671875 -26.03125 C 1.671875 -26.03125 1.671875 -25.898438 1.671875 -25.640625 C 1.671875 -25.390625 1.671875 -25.144531 1.671875 -24.90625 C 1.671875 -24.675781 1.671875 -24.628906 1.671875 -24.765625 C 1.671875 -24.910156 1.671875 -25.359375 1.671875 -26.109375 C 1.671875 -27.640625 1.785156 -29.125 2.015625 -30.5625 C 2.253906 -32.007812 2.582031 -33.335938 3 -34.546875 C 3.375 -35.710938 3.957031 -36.757812 4.75 -37.6875 C 5.539062 -38.625 6.378906 -39.53125 7.265625 -40.40625 C 8.234375 -41.289062 9.484375 -41.988281 11.015625 -42.5 C 12.554688 -43.019531 14.222656 -43.382812 16.015625 -43.59375 C 17.804688 -43.800781 19.5625 -43.90625 21.28125 -43.90625 L 39.78125 -43.90625 C 39.96875 -43.90625 40.203125 -43.773438 40.484375 -43.515625 C 40.765625 -43.265625 40.90625 -43.046875 40.90625 -42.859375 L 40.90625 -39.296875 C 40.851562 -39.109375 40.816406 -38.921875 40.796875 -38.734375 C 40.773438 -38.546875 40.765625 -38.359375 40.765625 -38.171875 C 40.710938 -37.753906 40.695312 -36.90625 40.71875 -35.625 C 40.75 -34.351562 40.773438 -32.984375 40.796875 -31.515625 C 40.816406 -30.046875 40.835938 -28.773438 40.859375 -27.703125 C 40.890625 -26.640625 40.90625 -26.109375 40.90625 -26.109375 C 40.90625 -25.640625 40.691406 -25.40625 40.265625 -25.40625 C 39.847656 -25.445312 39.066406 -25.457031 37.921875 -25.4375 C 36.785156 -25.414062 35.460938 -25.394531 33.953125 -25.375 C 32.441406 -25.351562 30.953125 -25.316406 29.484375 -25.265625 C 28.023438 -25.222656 26.75 -25.1875 25.65625 -25.15625 C 24.5625 -25.132812 23.894531 -25.125 23.65625 -25.125 C 22.257812 -25.125 21.257812 -24.8125 20.65625 -24.1875 C 20.050781 -23.5625 19.75 -22.96875 19.75 -22.40625 C 19.75 -21.238281 20.210938 -20.378906 21.140625 -19.828125 C 21.929688 -19.359375 22.570312 -19.085938 23.0625 -19.015625 C 23.550781 -18.953125 24.238281 -18.875 25.125 -18.78125 C 25.6875 -18.726562 26.5625 -18.703125 27.75 -18.703125 C 28.9375 -18.703125 30.226562 -18.710938 31.625 -18.734375 C 33.019531 -18.765625 34.351562 -18.789062 35.625 -18.8125 C 36.90625 -18.832031 37.976562 -18.851562 38.84375 -18.875 C 39.707031 -18.90625 40.160156 -18.921875 40.203125 -18.921875 C 40.523438 -18.921875 40.734375 -18.78125 40.828125 -18.5 Z M 40.828125 -18.5 "/></g></g></g><path stroke-linecap="butt" transform="matrix(0.75, 0, 0, 0.75, 89.900185, 154.12499)" fill="none" stroke-linejoin="miter" d="M 54.252882 56.552101 C 54.252882 57.354184 54.252882 58.239601 54.252882 59.208351 C 54.252882 60.161476 54.252882 60.979184 54.252882 61.661476 C 54.252882 62.161476 54.268507 62.911476 54.299757 63.911476 C 54.331007 64.895851 54.377882 65.963559 54.435174 67.114601 C 54.497674 68.265643 54.544549 69.24481 54.57059 70.046893 C 54.60184 70.848976 54.617465 71.250018 54.617465 71.250018 C 54.617465 71.750018 54.377882 72.000018 53.893507 72.000018 L 3.544545 72.000018 C 2.664337 72.000018 2.258087 71.567727 2.315378 70.703143 C 2.513295 66.041684 2.627879 61.364601 2.659129 56.687517 C 2.690379 52.005225 2.732045 47.312517 2.794545 42.598975 C 2.857045 38.010433 3.023712 33.390641 3.294545 28.739599 C 3.581004 24.07814 3.383087 19.447931 2.706004 14.859389 C 2.643504 14.479181 2.732045 14.156264 2.976837 13.885431 C 3.21642 13.609389 3.52892 13.473973 3.909129 13.473973 L 53.502882 13.473973 C 53.88309 13.473973 54.13309 13.656264 54.252882 14.020848 C 54.252882 14.078139 54.237257 14.359389 54.211215 14.859389 C 54.179965 15.35939 54.13309 15.85939 54.07059 16.35939 C 54.07059 16.661473 54.044549 17.375015 53.982049 18.494806 C 53.919549 19.614598 53.867465 20.781265 53.82059 21.994807 C 53.794549 23.192723 53.778924 24.098973 53.778924 24.718765 C 53.778924 25.343765 53.810174 26.104182 53.867465 27.01564 C 53.94559 27.906265 54.028924 28.713557 54.117465 29.42189 C 54.211215 30.135432 54.252882 30.489599 54.252882 30.489599 C 54.252882 30.989599 53.97684 31.239599 53.41434 31.239599 C 53.41434 31.239599 52.810173 31.223974 51.596632 31.197932 C 50.38309 31.166682 48.846632 31.151057 46.982048 31.151057 C 45.138298 31.151057 43.169548 31.151057 41.075798 31.151057 C 39.002881 31.151057 37.081006 31.182307 35.304964 31.239599 C 33.549756 31.302099 32.169547 31.390641 31.169547 31.515641 C 30.247672 31.635432 29.299755 31.916682 28.331005 32.354182 C 27.37788 32.791682 26.841422 33.572932 26.716422 34.692724 C 26.643505 35.375016 26.857047 35.953141 27.357047 36.421891 C 27.851839 36.875016 28.383089 37.223974 28.945589 37.463558 C 29.247672 37.526058 30.216422 37.593766 31.851839 37.671891 C 33.502881 37.729183 35.482047 37.760433 37.784131 37.760433 C 40.086214 37.760433 42.393506 37.744808 44.711215 37.713558 C 47.044548 37.687516 49.013298 37.671891 50.617465 37.671891 C 52.242465 37.671891 53.169548 37.671891 53.41434 37.671891 C 53.97684 37.671891 54.252882 37.911474 54.252882 38.395849 L 54.252882 46.119808 C 54.252882 46.8021 54.252882 47.39585 54.252882 47.89585 C 54.252882 48.39585 54.252882 48.921892 54.252882 49.484392 C 54.252882 49.984392 53.97684 50.234392 53.41434 50.234392 C 52.35184 50.234392 50.877882 50.218767 48.982048 50.187517 C 47.107048 50.14585 45.153923 50.088558 43.122673 50.031267 C 41.107048 49.968767 39.289339 49.921892 37.669547 49.89585 C 36.065381 49.8646 34.987256 49.848975 34.445589 49.848975 C 33.820589 49.906267 33.054964 49.937517 32.148714 49.937517 C 31.25288 49.937517 30.398714 50.067725 29.581005 50.322933 C 28.778922 50.567725 28.195589 51.062517 27.831005 51.8021 C 27.211213 52.984392 27.299755 53.95835 28.101839 54.734392 C 28.90913 55.505225 29.810172 56.020851 30.810172 56.276059 C 31.429964 56.401059 32.700797 56.458351 34.622672 56.458351 C 36.549756 56.458351 38.732048 56.416684 41.169548 56.322934 C 43.622673 56.234392 45.97684 56.140642 48.232048 56.052101 C 50.50809 55.942726 52.232048 55.859392 53.41434 55.8021 C 53.97684 55.8021 54.252882 56.052101 54.252882 56.552101 Z M 54.252882 56.552101 " stroke="#ffffff" stroke-width="6.980002" stroke-opacity="1" stroke-miterlimit="4"/><g fill="#272727" fill-opacity="1"><g transform="translate(89.900185, 208.124986)"><g><path d="M 40.6875 -11.59375 C 40.6875 -10.976562 40.6875 -10.3125 40.6875 -9.59375 C 40.6875 -8.875 40.6875 -8.257812 40.6875 -7.75 C 40.6875 -7.375 40.695312 -6.8125 40.71875 -6.0625 C 40.75 -5.320312 40.785156 -4.519531 40.828125 -3.65625 C 40.878906 -2.800781 40.914062 -2.070312 40.9375 -1.46875 C 40.957031 -0.863281 40.96875 -0.5625 40.96875 -0.5625 C 40.96875 -0.1875 40.78125 0 40.40625 0 L 2.65625 0 C 2 0 1.695312 -0.328125 1.75 -0.984375 C 1.882812 -4.472656 1.960938 -7.972656 1.984375 -11.484375 C 2.015625 -14.992188 2.050781 -18.519531 2.09375 -22.0625 C 2.132812 -25.5 2.257812 -28.960938 2.46875 -32.453125 C 2.6875 -35.941406 2.539062 -39.410156 2.03125 -42.859375 C 1.976562 -43.140625 2.046875 -43.382812 2.234375 -43.59375 C 2.421875 -43.800781 2.65625 -43.90625 2.9375 -43.90625 L 40.140625 -43.90625 C 40.410156 -43.90625 40.59375 -43.765625 40.6875 -43.484375 C 40.6875 -43.429688 40.675781 -43.21875 40.65625 -42.84375 C 40.632812 -42.476562 40.597656 -42.109375 40.546875 -41.734375 C 40.546875 -41.503906 40.519531 -40.96875 40.46875 -40.125 C 40.425781 -39.289062 40.394531 -38.421875 40.375 -37.515625 C 40.351562 -36.609375 40.34375 -35.921875 40.34375 -35.453125 C 40.34375 -34.992188 40.363281 -34.425781 40.40625 -33.75 C 40.457031 -33.070312 40.515625 -32.460938 40.578125 -31.921875 C 40.648438 -31.390625 40.6875 -31.125 40.6875 -31.125 C 40.6875 -30.757812 40.476562 -30.578125 40.0625 -30.578125 C 40.0625 -30.578125 39.609375 -30.585938 38.703125 -30.609375 C 37.796875 -30.628906 36.644531 -30.640625 35.25 -30.640625 C 33.851562 -30.640625 32.375 -30.640625 30.8125 -30.640625 C 29.257812 -30.640625 27.816406 -30.613281 26.484375 -30.5625 C 25.160156 -30.519531 24.125 -30.453125 23.375 -30.359375 C 22.675781 -30.265625 21.96875 -30.054688 21.25 -29.734375 C 20.53125 -29.410156 20.125 -28.828125 20.03125 -27.984375 C 19.988281 -27.472656 20.148438 -27.039062 20.515625 -26.6875 C 20.890625 -26.34375 21.285156 -26.078125 21.703125 -25.890625 C 21.941406 -25.847656 22.675781 -25.800781 23.90625 -25.75 C 25.132812 -25.707031 26.609375 -25.6875 28.328125 -25.6875 C 30.054688 -25.6875 31.789062 -25.695312 33.53125 -25.71875 C 35.28125 -25.738281 36.757812 -25.75 37.96875 -25.75 C 39.175781 -25.75 39.875 -25.75 40.0625 -25.75 C 40.476562 -25.75 40.6875 -25.566406 40.6875 -25.203125 L 40.6875 -19.40625 C 40.6875 -18.894531 40.6875 -18.453125 40.6875 -18.078125 C 40.6875 -17.703125 40.6875 -17.304688 40.6875 -16.890625 C 40.6875 -16.515625 40.476562 -16.328125 40.0625 -16.328125 C 39.269531 -16.328125 38.164062 -16.335938 36.75 -16.359375 C 35.332031 -16.390625 33.863281 -16.425781 32.34375 -16.46875 C 30.832031 -16.519531 29.472656 -16.554688 28.265625 -16.578125 C 27.054688 -16.597656 26.242188 -16.609375 25.828125 -16.609375 C 25.359375 -16.566406 24.785156 -16.546875 24.109375 -16.546875 C 23.441406 -16.546875 22.800781 -16.453125 22.1875 -16.265625 C 21.582031 -16.078125 21.144531 -15.703125 20.875 -15.140625 C 20.40625 -14.253906 20.472656 -13.519531 21.078125 -12.9375 C 21.679688 -12.363281 22.359375 -11.984375 23.109375 -11.796875 C 23.566406 -11.703125 24.515625 -11.65625 25.953125 -11.65625 C 27.398438 -11.65625 29.039062 -11.6875 30.875 -11.75 C 32.71875 -11.820312 34.488281 -11.894531 36.1875 -11.96875 C 37.882812 -12.039062 39.175781 -12.097656 40.0625 -12.140625 C 40.476562 -12.140625 40.6875 -11.957031 40.6875 -11.59375 Z M 40.6875 -11.59375 "/></g></g></g><path stroke-linecap="butt" transform="matrix(0.444518, 0, 0, 0.444518, 96.66758, 228.500493)" fill="none" stroke-linejoin="miter" d="M 85.258284 12.002769 L 85.258284 3.434847 L 88.69424 3.434847 C 89.581789 3.434847 90.249648 3.636962 90.697816 4.04998 C 91.154772 4.45421 91.374462 5.016617 91.374462 5.737201 C 91.374462 6.25567 91.242648 6.677476 90.979019 7.011405 C 90.715391 7.345334 90.319948 7.600175 89.801479 7.775927 L 89.801479 7.898954 C 90.073895 8.013193 90.284798 8.188945 90.451763 8.417423 C 90.618727 8.654689 90.776904 8.988618 90.926294 9.445574 L 91.778692 12.002769 L 90.038745 12.002769 L 89.203922 9.436786 C 89.116046 9.181945 89.019382 8.97983 88.913931 8.839228 C 88.808479 8.698627 88.667877 8.593175 88.500913 8.531662 C 88.333948 8.461361 88.123046 8.434998 87.859417 8.434998 L 86.945506 8.434998 L 86.945506 12.002769 Z M 88.492125 7.090494 C 89.309373 7.090494 89.722391 6.703839 89.722391 5.939316 C 89.722391 5.166007 89.309373 4.779352 88.492125 4.779352 L 86.945506 4.779352 L 86.945506 7.090494 Z M 106.313402 12.002769 L 104.529517 12.002769 L 103.888021 10.025556 L 100.601454 10.025556 L 99.959959 12.002769 L 98.220011 12.002769 L 101.181437 3.434847 L 103.351977 3.434847 Z M 102.165649 5.218732 L 101.05841 8.601963 L 103.41349 8.601963 L 102.306251 5.218732 Z M 116.542182 12.125795 C 115.821598 12.125795 115.206465 11.958831 114.687996 11.633689 C 114.160739 11.308547 113.765297 10.816441 113.475305 10.15737 C 113.194102 9.498299 113.0535 8.689839 113.0535 7.714414 C 113.0535 6.738989 113.220465 5.921741 113.563182 5.26267 C 113.905898 4.603599 114.371642 4.120281 114.977987 3.795139 C 115.584332 3.469998 116.278554 3.311821 117.078226 3.311821 C 117.895474 3.311821 118.598483 3.46121 119.178465 3.768776 C 119.758448 4.076343 120.162678 4.524511 120.399943 5.130856 L 119.16089 5.877803 L 119.011501 5.869016 C 118.835749 5.491148 118.589695 5.209945 118.273341 5.034192 C 117.956987 4.85844 117.552757 4.770564 117.078226 4.770564 C 116.340067 4.770564 115.77766 4.999042 115.382217 5.473573 C 114.995562 5.939316 114.802235 6.686263 114.802235 7.714414 C 114.802235 8.751352 114.986775 9.507087 115.347067 9.97283 C 115.716146 10.438574 116.252191 10.675839 116.963987 10.675839 C 117.587908 10.675839 118.036076 10.535237 118.334855 10.262821 C 118.624846 9.981618 118.774235 9.5686 118.774235 9.014981 L 118.774235 8.645901 L 116.744297 8.645901 L 116.744297 7.275033 L 120.452669 7.275033 L 120.452669 12.002769 L 118.835749 12.002769 L 118.835749 10.851591 L 118.712722 10.834016 C 118.53697 11.247034 118.273341 11.563388 117.913049 11.783078 C 117.552757 12.011556 117.095801 12.125795 116.542182 12.125795 Z M 133.897715 6.659901 L 133.897715 3.434847 L 135.584937 3.434847 L 135.584937 12.002769 L 133.897715 12.002769 L 133.897715 8.101069 L 130.066316 8.101069 L 130.066316 12.002769 L 128.370307 12.002769 L 128.370307 3.434847 L 130.066316 3.434847 L 130.066316 6.659901 Z M 147.184584 12.125795 C 146.007044 12.125795 145.13707 11.844592 144.565876 11.282184 C 143.994681 10.719777 143.70469 9.893742 143.70469 8.786503 L 143.70469 3.434847 L 145.365548 3.434847 L 145.365548 8.777715 C 145.365548 9.401635 145.514938 9.867379 145.813717 10.183733 C 146.121283 10.500087 146.578239 10.649476 147.184584 10.649476 C 148.406062 10.649476 149.012407 10.025556 149.012407 8.777715 L 149.012407 3.434847 L 150.664478 3.434847 L 150.664478 8.786503 C 150.664478 9.893742 150.383275 10.719777 149.81208 11.282184 C 149.240885 11.844592 148.370912 12.125795 147.184584 12.125795 Z M 169.241489 8.241671 L 169.241489 10.579175 L 173.336517 10.579175 L 173.336517 12.002769 L 167.554268 12.002769 L 167.554268 3.434847 L 173.239853 3.434847 L 173.239853 4.849653 L 169.241489 4.849653 L 169.241489 6.853228 L 172.738959 6.853228 L 172.738959 8.241671 Z M 182.501996 12.002769 L 180.858712 12.002769 L 180.858712 3.434847 L 182.800774 3.434847 L 186.236731 8.953467 L 186.38612 8.927104 L 186.38612 3.434847 L 188.020616 3.434847 L 188.020616 12.002769 L 186.280669 12.002769 L 182.642597 6.106281 L 182.501996 6.132644 Z M 199.233608 12.125795 C 198.521812 12.125795 197.906679 11.958831 197.379422 11.633689 C 196.860953 11.308547 196.456723 10.816441 196.175519 10.15737 C 195.894316 9.498299 195.753714 8.689839 195.753714 7.714414 C 195.753714 6.738989 195.920679 5.921741 196.263396 5.26267 C 196.597325 4.603599 197.071856 4.120281 197.678201 3.795139 C 198.275759 3.469998 198.978768 3.311821 199.77844 3.311821 C 200.595688 3.311821 201.298697 3.46121 201.869892 3.768776 C 202.449874 4.076343 202.854104 4.524511 203.09137 5.130856 L 201.852317 5.877803 L 201.711715 5.869016 C 201.535963 5.491148 201.289909 5.209945 200.964768 5.034192 C 200.648414 4.85844 200.252971 4.770564 199.77844 4.770564 C 199.040281 4.770564 198.469086 4.999042 198.082431 5.473573 C 197.695776 5.939316 197.493661 6.686263 197.493661 7.714414 C 197.493661 8.751352 197.678201 9.507087 198.047281 9.97283 C 198.407573 10.438574 198.952405 10.675839 199.664201 10.675839 C 200.279334 10.675839 200.73629 10.535237 201.026281 10.262821 C 201.32506 9.981618 201.465662 9.5686 201.465662 9.014981 L 201.465662 8.645901 L 199.444511 8.645901 L 199.444511 7.275033 L 203.152883 7.275033 L 203.152883 12.002769 L 201.535963 12.002769 L 201.535963 10.851591 L 201.412936 10.834016 C 201.237184 11.247034 200.964768 11.563388 200.613263 11.783078 C 200.252971 12.011556 199.796015 12.125795 199.233608 12.125795 Z M 214.111035 12.125795 C 213.399238 12.125795 212.775318 11.958831 212.256849 11.633689 C 211.73838 11.308547 211.33415 10.816441 211.052946 10.15737 C 210.771743 9.498299 210.622353 8.689839 210.622353 7.714414 C 210.622353 6.738989 210.798105 5.921741 211.132035 5.26267 C 211.474751 4.603599 211.949282 4.120281 212.54684 3.795139 C 213.153185 3.469998 213.856194 3.311821 214.647079 3.311821 C 215.473115 3.311821 216.167336 3.46121 216.747318 3.768776 C 217.327301 4.076343 217.731531 4.524511 217.968797 5.130856 L 216.729743 5.877803 L 216.589141 5.869016 C 216.413389 5.491148 216.158549 5.209945 215.842194 5.034192 C 215.52584 4.85844 215.130398 4.770564 214.647079 4.770564 C 213.90892 4.770564 213.346513 4.999042 212.959858 5.473573 C 212.564415 5.939316 212.371088 6.686263 212.371088 7.714414 C 212.371088 8.751352 212.555628 9.507087 212.91592 9.97283 C 213.284999 10.438574 213.821044 10.675839 214.541628 10.675839 C 215.156761 10.675839 215.613717 10.535237 215.903708 10.262821 C 216.202487 9.981618 216.343088 9.5686 216.343088 9.014981 L 216.343088 8.645901 L 214.31315 8.645901 L 214.31315 7.275033 L 218.03031 7.275033 L 218.03031 12.002769 L 216.413389 12.002769 L 216.413389 10.851591 L 216.290363 10.834016 C 216.11461 11.247034 215.842194 11.563388 215.49069 11.783078 C 215.130398 12.011556 214.673442 12.125795 214.111035 12.125795 Z M 238.276967 12.125795 C 237.486082 12.125795 236.791861 11.958831 236.194303 11.633689 C 235.587958 11.29976 235.122215 10.807653 234.779498 10.148582 C 234.445569 9.489512 234.269816 8.681051 234.269816 7.714414 C 234.269816 6.747777 234.445569 5.939316 234.779498 5.280246 C 235.122215 4.621175 235.587958 4.129068 236.194303 3.803927 C 236.791861 3.478785 237.486082 3.311821 238.276967 3.311821 C 239.103003 3.311821 239.806012 3.469998 240.377206 3.795139 C 240.957189 4.120281 241.370207 4.603599 241.61626 5.271458 L 240.377206 6.027193 L 240.227817 6.018405 C 240.043277 5.570237 239.797224 5.253883 239.48087 5.060555 C 239.173304 4.867228 238.769073 4.770564 238.276967 4.770564 C 237.565171 4.770564 237.011551 5.00783 236.616109 5.473573 C 236.220666 5.948104 236.018551 6.695051 236.018551 7.714414 C 236.018551 8.733777 236.220666 9.480724 236.616109 9.955255 C 237.011551 10.420998 237.565171 10.658264 238.276967 10.658264 C 239.392994 10.658264 240.078428 10.113432 240.324481 9.032556 L 240.47387 9.032556 L 241.721711 9.682839 C 241.484446 10.500087 241.080215 11.106432 240.517808 11.510662 C 239.955401 11.92368 239.208454 12.125795 238.276967 12.125795 Z M 252.609562 12.125795 C 251.827465 12.125795 251.133243 11.958831 250.535686 11.642476 C 249.92934 11.326122 249.463597 10.834016 249.12088 10.174945 C 248.786951 9.515874 248.611199 8.698627 248.611199 7.714414 C 248.611199 6.738989 248.786951 5.912954 249.12088 5.26267 C 249.463597 4.603599 249.92934 4.111493 250.535686 3.795139 C 251.133243 3.469998 251.827465 3.311821 252.609562 3.311821 C 253.391659 3.311821 254.085881 3.469998 254.683438 3.786352 C 255.280996 4.102706 255.746739 4.594812 256.089456 5.253883 C 256.423385 5.912954 256.59035 6.738989 256.59035 7.714414 C 256.59035 8.698627 256.423385 9.515874 256.089456 10.174945 C 255.746739 10.834016 255.280996 11.326122 254.683438 11.642476 C 254.085881 11.967618 253.391659 12.125795 252.609562 12.125795 Z M 252.609562 10.649476 C 253.338934 10.649476 253.892553 10.420998 254.270421 9.955255 C 254.657076 9.489512 254.850403 8.742565 254.850403 7.714414 C 254.850403 6.695051 254.657076 5.948104 254.270421 5.482361 C 253.892553 5.00783 253.338934 4.779352 252.609562 4.779352 C 251.88019 4.779352 251.317783 5.00783 250.939916 5.482361 C 250.553261 5.948104 250.359933 6.695051 250.359933 7.714414 C 250.359933 8.742565 250.553261 9.489512 250.939916 9.955255 C 251.317783 10.420998 251.88019 10.649476 252.609562 10.649476 Z M 266.019457 3.434847 L 266.019457 10.579175 L 269.868431 10.579175 L 269.868431 12.002769 L 264.323448 12.002769 L 264.323448 3.434847 Z M 278.902096 3.434847 L 278.902096 10.579175 L 282.75107 10.579175 L 282.75107 12.002769 L 277.206087 12.002769 L 277.206087 3.434847 Z M 291.775947 8.241671 L 291.775947 10.579175 L 295.862187 10.579175 L 295.862187 12.002769 L 290.079938 12.002769 L 290.079938 3.434847 L 295.774311 3.434847 L 295.774311 4.849653 L 291.775947 4.849653 L 291.775947 6.853228 L 295.264629 6.853228 L 295.264629 8.241671 Z M 306.433684 12.125795 C 305.721887 12.125795 305.097967 11.958831 304.579498 11.633689 C 304.061029 11.308547 303.656799 10.816441 303.375595 10.15737 C 303.085604 9.498299 302.945002 8.689839 302.945002 7.714414 C 302.945002 6.738989 303.120754 5.921741 303.454683 5.26267 C 303.7974 4.603599 304.271931 4.120281 304.869489 3.795139 C 305.475834 3.469998 306.178843 3.311821 306.969728 3.311821 C 307.795764 3.311821 308.489985 3.46121 309.069967 3.768776 C 309.64995 4.076343 310.05418 4.524511 310.291445 5.130856 L 309.052392 5.877803 L 308.903003 5.869016 C 308.72725 5.491148 308.481197 5.209945 308.164843 5.034192 C 307.848489 4.85844 307.453047 4.770564 306.969728 4.770564 C 306.231569 4.770564 305.669162 4.999042 305.282507 5.473573 C 304.887064 5.939316 304.693737 6.686263 304.693737 7.714414 C 304.693737 8.751352 304.878277 9.507087 305.238569 9.97283 C 305.607648 10.438574 306.143693 10.675839 306.864277 10.675839 C 307.47941 10.675839 307.936365 10.535237 308.226357 10.262821 C 308.516348 9.981618 308.665737 9.5686 308.665737 9.014981 L 308.665737 8.645901 L 306.635799 8.645901 L 306.635799 7.275033 L 310.352959 7.275033 L 310.352959 12.002769 L 308.72725 12.002769 L 308.72725 10.851591 L 308.604224 10.834016 C 308.428472 11.247034 308.164843 11.563388 307.804551 11.783078 C 307.453047 12.011556 306.996091 12.125795 306.433684 12.125795 Z M 319.957818 8.241671 L 319.957818 10.579175 L 324.044058 10.579175 L 324.044058 12.002769 L 318.261809 12.002769 L 318.261809 3.434847 L 323.956182 3.434847 L 323.956182 4.849653 L 319.957818 4.849653 L 319.957818 6.853228 L 323.4465 6.853228 L 323.4465 8.241671 Z M 319.957818 8.241671 " stroke="#222222" stroke-width="0.42" stroke-opacity="1" stroke-miterlimit="4"/><g fill="#000000" fill-opacity="1"><g transform="translate(134.069587, 233.834707)"><g><path d="M 0.5 0 L 0.5 -3.796875 L 2.015625 -3.796875 C 2.410156 -3.796875 2.707031 -3.707031 2.90625 -3.53125 C 3.113281 -3.351562 3.21875 -3.101562 3.21875 -2.78125 C 3.21875 -2.550781 3.15625 -2.363281 3.03125 -2.21875 C 2.914062 -2.070312 2.742188 -1.957031 2.515625 -1.875 L 2.515625 -1.828125 C 2.628906 -1.773438 2.722656 -1.695312 2.796875 -1.59375 C 2.867188 -1.488281 2.941406 -1.335938 3.015625 -1.140625 L 3.390625 0 L 2.625 0 L 2.25 -1.140625 C 2.207031 -1.253906 2.160156 -1.34375 2.109375 -1.40625 C 2.066406 -1.46875 2.007812 -1.507812 1.9375 -1.53125 C 1.863281 -1.5625 1.769531 -1.578125 1.65625 -1.578125 L 1.25 -1.578125 L 1.25 0 Z M 1.9375 -2.1875 C 2.300781 -2.1875 2.484375 -2.351562 2.484375 -2.6875 C 2.484375 -3.03125 2.300781 -3.203125 1.9375 -3.203125 L 1.25 -3.203125 L 1.25 -2.1875 Z M 1.9375 -2.1875 "/></g></g></g><g fill="#000000" fill-opacity="1"><g transform="translate(140.270506, 233.834707)"><g><path d="M 3.65625 0 L 2.859375 0 L 2.578125 -0.875 L 1.109375 -0.875 L 0.828125 0 L 0.0625 0 L 1.375 -3.796875 L 2.34375 -3.796875 Z M 1.8125 -3.015625 L 1.3125 -1.515625 L 2.359375 -1.515625 L 1.875 -3.015625 Z M 1.8125 -3.015625 "/></g></g></g><g fill="#000000" fill-opacity="1"><g transform="translate(146.622493, 233.834707)"><g><path d="M 1.84375 0.046875 C 1.53125 0.046875 1.253906 -0.0195312 1.015625 -0.15625 C 0.785156 -0.300781 0.609375 -0.519531 0.484375 -0.8125 C 0.359375 -1.101562 0.296875 -1.46875 0.296875 -1.90625 C 0.296875 -2.332031 0.367188 -2.691406 0.515625 -2.984375 C 0.671875 -3.273438 0.882812 -3.492188 1.15625 -3.640625 C 1.425781 -3.785156 1.738281 -3.859375 2.09375 -3.859375 C 2.457031 -3.859375 2.765625 -3.789062 3.015625 -3.65625 C 3.273438 -3.519531 3.457031 -3.316406 3.5625 -3.046875 L 3.015625 -2.71875 L 2.9375 -2.71875 C 2.863281 -2.882812 2.753906 -3.003906 2.609375 -3.078125 C 2.472656 -3.160156 2.300781 -3.203125 2.09375 -3.203125 C 1.757812 -3.203125 1.503906 -3.097656 1.328125 -2.890625 C 1.160156 -2.691406 1.078125 -2.363281 1.078125 -1.90625 C 1.078125 -1.445312 1.15625 -1.113281 1.3125 -0.90625 C 1.476562 -0.695312 1.71875 -0.59375 2.03125 -0.59375 C 2.3125 -0.59375 2.515625 -0.648438 2.640625 -0.765625 C 2.773438 -0.890625 2.84375 -1.078125 2.84375 -1.328125 L 2.84375 -1.484375 L 1.9375 -1.484375 L 1.9375 -2.09375 L 3.578125 -2.09375 L 3.578125 0 L 2.859375 0 L 2.859375 -0.515625 L 2.8125 -0.515625 C 2.726562 -0.335938 2.609375 -0.195312 2.453125 -0.09375 C 2.296875 0 2.09375 0.046875 1.84375 0.046875 Z M 1.84375 0.046875 "/></g></g></g><g fill="#000000" fill-opacity="1"><g transform="translate(153.234938, 233.834707)"><g><path d="M 2.953125 -2.375 L 2.953125 -3.796875 L 3.703125 -3.796875 L 3.703125 0 L 2.953125 0 L 2.953125 -1.734375 L 1.25 -1.734375 L 1.25 0 L 0.5 0 L 0.5 -3.796875 L 1.25 -3.796875 L 1.25 -2.375 Z M 2.953125 -2.375 "/></g></g></g><g fill="#000000" fill-opacity="1"><g transform="translate(160.076589, 233.834707)"><g><path d="M 2.015625 0.046875 C 1.492188 0.046875 1.101562 -0.0703125 0.84375 -0.3125 C 0.59375 -0.5625 0.46875 -0.929688 0.46875 -1.421875 L 0.46875 -3.796875 L 1.203125 -3.796875 L 1.203125 -1.4375 C 1.203125 -1.15625 1.269531 -0.941406 1.40625 -0.796875 C 1.539062 -0.660156 1.742188 -0.59375 2.015625 -0.59375 C 2.554688 -0.59375 2.828125 -0.875 2.828125 -1.4375 L 2.828125 -3.796875 L 3.5625 -3.796875 L 3.5625 -1.421875 C 3.5625 -0.929688 3.429688 -0.5625 3.171875 -0.3125 C 2.921875 -0.0703125 2.535156 0.046875 2.015625 0.046875 Z M 2.015625 0.046875 "/></g></g></g><g fill="#000000" fill-opacity="1"><g transform="translate(166.754151, 233.834707)"><g/></g></g><g fill="#000000" fill-opacity="1"><g transform="translate(170.652608, 233.834707)"><g><path d="M 1.25 -1.671875 L 1.25 -0.625 L 3.0625 -0.625 L 3.0625 0 L 0.5 0 L 0.5 -3.796875 L 3.015625 -3.796875 L 3.015625 -3.171875 L 1.25 -3.171875 L 1.25 -2.28125 L 2.796875 -2.28125 L 2.796875 -1.671875 Z M 1.25 -1.671875 "/></g></g></g><g fill="#000000" fill-opacity="1"><g transform="translate(176.567023, 233.834707)"><g><path d="M 1.21875 0 L 0.5 0 L 0.5 -3.796875 L 1.359375 -3.796875 L 2.875 -1.359375 L 2.953125 -1.359375 L 2.953125 -3.796875 L 3.671875 -3.796875 L 3.671875 0 L 2.90625 0 L 1.28125 -2.625 L 1.21875 -2.609375 Z M 1.21875 0 "/></g></g></g><g fill="#000000" fill-opacity="1"><g transform="translate(183.382628, 233.834707)"><g><path d="M 1.84375 0.046875 C 1.53125 0.046875 1.253906 -0.0195312 1.015625 -0.15625 C 0.785156 -0.300781 0.609375 -0.519531 0.484375 -0.8125 C 0.359375 -1.101562 0.296875 -1.46875 0.296875 -1.90625 C 0.296875 -2.332031 0.367188 -2.691406 0.515625 -2.984375 C 0.671875 -3.273438 0.882812 -3.492188 1.15625 -3.640625 C 1.425781 -3.785156 1.738281 -3.859375 2.09375 -3.859375 C 2.457031 -3.859375 2.765625 -3.789062 3.015625 -3.65625 C 3.273438 -3.519531 3.457031 -3.316406 3.5625 -3.046875 L 3.015625 -2.71875 L 2.9375 -2.71875 C 2.863281 -2.882812 2.753906 -3.003906 2.609375 -3.078125 C 2.472656 -3.160156 2.300781 -3.203125 2.09375 -3.203125 C 1.757812 -3.203125 1.503906 -3.097656 1.328125 -2.890625 C 1.160156 -2.691406 1.078125 -2.363281 1.078125 -1.90625 C 1.078125 -1.445312 1.15625 -1.113281 1.3125 -0.90625 C 1.476562 -0.695312 1.71875 -0.59375 2.03125 -0.59375 C 2.3125 -0.59375 2.515625 -0.648438 2.640625 -0.765625 C 2.773438 -0.890625 2.84375 -1.078125 2.84375 -1.328125 L 2.84375 -1.484375 L 1.9375 -1.484375 L 1.9375 -2.09375 L 3.578125 -2.09375 L 3.578125 0 L 2.859375 0 L 2.859375 -0.515625 L 2.8125 -0.515625 C 2.726562 -0.335938 2.609375 -0.195312 2.453125 -0.09375 C 2.296875 0 2.09375 0.046875 1.84375 0.046875 Z M 1.84375 0.046875 "/></g></g></g><g fill="#000000" fill-opacity="1"><g transform="translate(189.995075, 233.834707)"><g><path d="M 1.84375 0.046875 C 1.53125 0.046875 1.253906 -0.0195312 1.015625 -0.15625 C 0.785156 -0.300781 0.609375 -0.519531 0.484375 -0.8125 C 0.359375 -1.101562 0.296875 -1.46875 0.296875 -1.90625 C 0.296875 -2.332031 0.367188 -2.691406 0.515625 -2.984375 C 0.671875 -3.273438 0.882812 -3.492188 1.15625 -3.640625 C 1.425781 -3.785156 1.738281 -3.859375 2.09375 -3.859375 C 2.457031 -3.859375 2.765625 -3.789062 3.015625 -3.65625 C 3.273438 -3.519531 3.457031 -3.316406 3.5625 -3.046875 L 3.015625 -2.71875 L 2.9375 -2.71875 C 2.863281 -2.882812 2.753906 -3.003906 2.609375 -3.078125 C 2.472656 -3.160156 2.300781 -3.203125 2.09375 -3.203125 C 1.757812 -3.203125 1.503906 -3.097656 1.328125 -2.890625 C 1.160156 -2.691406 1.078125 -2.363281 1.078125 -1.90625 C 1.078125 -1.445312 1.15625 -1.113281 1.3125 -0.90625 C 1.476562 -0.695312 1.71875 -0.59375 2.03125 -0.59375 C 2.3125 -0.59375 2.515625 -0.648438 2.640625 -0.765625 C 2.773438 -0.890625 2.84375 -1.078125 2.84375 -1.328125 L 2.84375 -1.484375 L 1.9375 -1.484375 L 1.9375 -2.09375 L 3.578125 -2.09375 L 3.578125 0 L 2.859375 0 L 2.859375 -0.515625 L 2.8125 -0.515625 C 2.726562 -0.335938 2.609375 -0.195312 2.453125 -0.09375 C 2.296875 0 2.09375 0.046875 1.84375 0.046875 Z M 1.84375 0.046875 "/></g></g></g><g fill="#000000" fill-opacity="1"><g transform="translate(196.607518, 233.834707)"><g/></g></g><g fill="#000000" fill-opacity="1"><g transform="translate(200.505975, 233.834707)"><g><path d="M 2.078125 0.046875 C 1.722656 0.046875 1.410156 -0.0195312 1.140625 -0.15625 C 0.878906 -0.300781 0.671875 -0.519531 0.515625 -0.8125 C 0.367188 -1.113281 0.296875 -1.476562 0.296875 -1.90625 C 0.296875 -2.332031 0.367188 -2.691406 0.515625 -2.984375 C 0.671875 -3.273438 0.878906 -3.492188 1.140625 -3.640625 C 1.410156 -3.785156 1.722656 -3.859375 2.078125 -3.859375 C 2.441406 -3.859375 2.75 -3.785156 3 -3.640625 C 3.257812 -3.492188 3.445312 -3.273438 3.5625 -2.984375 L 3.015625 -2.65625 L 2.9375 -2.65625 C 2.863281 -2.851562 2.753906 -2.992188 2.609375 -3.078125 C 2.472656 -3.160156 2.296875 -3.203125 2.078125 -3.203125 C 1.765625 -3.203125 1.519531 -3.097656 1.34375 -2.890625 C 1.164062 -2.679688 1.078125 -2.351562 1.078125 -1.90625 C 1.078125 -1.445312 1.164062 -1.113281 1.34375 -0.90625 C 1.519531 -0.695312 1.765625 -0.59375 2.078125 -0.59375 C 2.566406 -0.59375 2.867188 -0.832031 2.984375 -1.3125 L 3.046875 -1.3125 L 3.609375 -1.03125 C 3.503906 -0.664062 3.320312 -0.394531 3.0625 -0.21875 C 2.8125 -0.0390625 2.484375 0.046875 2.078125 0.046875 Z M 2.078125 0.046875 "/></g></g></g><g fill="#000000" fill-opacity="1"><g transform="translate(206.881403, 233.834707)"><g><path d="M 2.078125 0.046875 C 1.722656 0.046875 1.410156 -0.0195312 1.140625 -0.15625 C 0.878906 -0.300781 0.671875 -0.519531 0.515625 -0.8125 C 0.367188 -1.101562 0.296875 -1.46875 0.296875 -1.90625 C 0.296875 -2.34375 0.367188 -2.707031 0.515625 -3 C 0.671875 -3.289062 0.878906 -3.503906 1.140625 -3.640625 C 1.410156 -3.785156 1.722656 -3.859375 2.078125 -3.859375 C 2.421875 -3.859375 2.722656 -3.785156 2.984375 -3.640625 C 3.253906 -3.503906 3.460938 -3.289062 3.609375 -3 C 3.765625 -2.707031 3.84375 -2.34375 3.84375 -1.90625 C 3.84375 -1.46875 3.765625 -1.101562 3.609375 -0.8125 C 3.460938 -0.519531 3.253906 -0.300781 2.984375 -0.15625 C 2.722656 -0.0195312 2.421875 0.046875 2.078125 0.046875 Z M 2.078125 -0.59375 C 2.398438 -0.59375 2.644531 -0.695312 2.8125 -0.90625 C 2.976562 -1.113281 3.0625 -1.445312 3.0625 -1.90625 C 3.0625 -2.351562 2.976562 -2.679688 2.8125 -2.890625 C 2.644531 -3.097656 2.398438 -3.203125 2.078125 -3.203125 C 1.753906 -3.203125 1.503906 -3.097656 1.328125 -2.890625 C 1.160156 -2.679688 1.078125 -2.351562 1.078125 -1.90625 C 1.078125 -1.445312 1.160156 -1.113281 1.328125 -0.90625 C 1.503906 -0.695312 1.753906 -0.59375 2.078125 -0.59375 Z M 2.078125 -0.59375 "/></g></g></g><g fill="#000000" fill-opacity="1"><g transform="translate(213.670963, 233.834707)"><g><path d="M 1.25 -3.796875 L 1.25 -0.625 L 2.953125 -0.625 L 2.953125 0 L 0.5 0 L 0.5 -3.796875 Z M 1.25 -3.796875 "/></g></g></g><g fill="#000000" fill-opacity="1"><g transform="translate(219.395242, 233.834707)"><g><path d="M 1.25 -3.796875 L 1.25 -0.625 L 2.953125 -0.625 L 2.953125 0 L 0.5 0 L 0.5 -3.796875 Z M 1.25 -3.796875 "/></g></g></g><g fill="#000000" fill-opacity="1"><g transform="translate(225.119521, 233.834707)"><g><path d="M 1.25 -1.671875 L 1.25 -0.625 L 3.0625 -0.625 L 3.0625 0 L 0.5 0 L 0.5 -3.796875 L 3.015625 -3.796875 L 3.015625 -3.171875 L 1.25 -3.171875 L 1.25 -2.28125 L 2.796875 -2.28125 L 2.796875 -1.671875 Z M 1.25 -1.671875 "/></g></g></g><g fill="#000000" fill-opacity="1"><g transform="translate(231.033936, 233.834707)"><g><path d="M 1.84375 0.046875 C 1.53125 0.046875 1.253906 -0.0195312 1.015625 -0.15625 C 0.785156 -0.300781 0.609375 -0.519531 0.484375 -0.8125 C 0.359375 -1.101562 0.296875 -1.46875 0.296875 -1.90625 C 0.296875 -2.332031 0.367188 -2.691406 0.515625 -2.984375 C 0.671875 -3.273438 0.882812 -3.492188 1.15625 -3.640625 C 1.425781 -3.785156 1.738281 -3.859375 2.09375 -3.859375 C 2.457031 -3.859375 2.765625 -3.789062 3.015625 -3.65625 C 3.273438 -3.519531 3.457031 -3.316406 3.5625 -3.046875 L 3.015625 -2.71875 L 2.9375 -2.71875 C 2.863281 -2.882812 2.753906 -3.003906 2.609375 -3.078125 C 2.472656 -3.160156 2.300781 -3.203125 2.09375 -3.203125 C 1.757812 -3.203125 1.503906 -3.097656 1.328125 -2.890625 C 1.160156 -2.691406 1.078125 -2.363281 1.078125 -1.90625 C 1.078125 -1.445312 1.15625 -1.113281 1.3125 -0.90625 C 1.476562 -0.695312 1.71875 -0.59375 2.03125 -0.59375 C 2.3125 -0.59375 2.515625 -0.648438 2.640625 -0.765625 C 2.773438 -0.890625 2.84375 -1.078125 2.84375 -1.328125 L 2.84375 -1.484375 L 1.9375 -1.484375 L 1.9375 -2.09375 L 3.578125 -2.09375 L 3.578125 0 L 2.859375 0 L 2.859375 -0.515625 L 2.8125 -0.515625 C 2.726562 -0.335938 2.609375 -0.195312 2.453125 -0.09375 C 2.296875 0 2.09375 0.046875 1.84375 0.046875 Z M 1.84375 0.046875 "/></g></g></g><g fill="#000000" fill-opacity="1"><g transform="translate(237.646383, 233.834707)"><g><path d="M 1.25 -1.671875 L 1.25 -0.625 L 3.0625 -0.625 L 3.0625 0 L 0.5 0 L 0.5 -3.796875 L 3.015625 -3.796875 L 3.015625 -3.171875 L 1.25 -3.171875 L 1.25 -2.28125 L 2.796875 -2.28125 L 2.796875 -1.671875 Z M 1.25 -1.671875 "/></g></g></g></svg>